<svg xmlns="http://www.w3.org/2000/svg" width="207" height="198" viewBox="0 0 207 198">
  <g fill="none" fill-rule="evenodd" transform="translate(0 -12)">
    <g transform="translate(103.324 1.4)">
      <path fill="#00B74F" d="M3.16847999,82.3965452 C2.860429,84.4932315 -3.38178902,138.45236 2.54376341,144.703603 C8.46931584,150.954847 16.2710434,144.208943 14.7829051,140.773363 C8.14679062,126.007361 0.893382055,100.74261 12.1687379,88.2068533 C12.4106161,87.9379371 12.8300055,87.6764242 13.2758549,87.7944491 C22.6252666,90.2694164 36.4251988,92.4015831 57.1215616,85.8187929 C86.0040497,76.6322822 103.843355,25.2022893 100.932509,18.2391084 C98.3126896,11.9721047 65.0037143,5.60601478 36.9308256,21.4049414 C18.0027149,32.0573482 8.22192431,48.0013075 3.16847999,82.3965452 Z"/>
      <path fill="#80E0A7" d="M25.3983993,89.8782204 C24.1581425,96.0301481 36.1495437,96.6861762 55.0728366,86.2949521 C69.1104447,78.5865722 72.5200828,73.3102085 79.1540037,59.2981832 C85.7879247,45.2861578 86.283479,6.84422442 83.6434727,9.31787232 C74.1705054,18.4277273 53.4496887,38.7967392 55.0050469,39.1098223 C56.5604051,39.4229053 60.4173784,38.7993151 64.0931145,38.6594503 C71.7334203,38.3687304 74.5525204,39.6586843 74.5525204,40.8913018 C74.5525204,42.1239194 68.9276525,43.6094877 64.0931145,43.1231534 C60.7592324,42.7877788 54.7163775,41.8881369 53.1302672,41.4087029 C51.5441568,40.9292689 41.715397,53.9689129 43.1074971,54.7067674 C44.4995972,55.444622 50.0462653,55.3777661 53.9880107,55.7460219 C61.7967298,56.4755478 66.5932633,60.1792996 66.5932633,61.4119172 C66.5932633,62.6445347 59.2825142,62.6067216 54.4479761,62.1203873 C51.2004993,61.7937047 43.2435165,58.2960018 41.2929454,57.3532865 C39.3423742,56.4105711 32.0887372,68.9523372 33.6750643,69.9471483 C35.2613913,70.9419595 39.5931466,72.20624 43.5231337,72.5014856 C50.9868116,73.0622045 54.2449196,75.1854157 55.91707,76.2402069 C57.5892203,77.2949982 47.8432714,76.7265412 43.0087333,76.2402069 C39.9326952,75.9307704 34.6294321,73.8416386 32.8825261,73.0195164 C31.1356202,72.1973942 26.6386561,83.7262928 25.3983993,89.8782204 Z" transform="rotate(19 55.223 51.772)"/>
    </g>
    <path fill="#ED8888" d="M206.636407,177.423998 C206.636407,176.745167 206.600542,176.119955 206.537744,175.503661 C205.587029,159.837131 193.73893,147.136714 178.429123,144.795286 C176.518714,120.537271 156.158975,101.44 131.306655,101.44 C114.812529,101.44 100.300379,109.85382 91.8347293,122.599511 C88.2291936,121.867106 84.4622433,121.465176 80.5876069,121.465176 C61.4295675,121.465176 44.9455439,130.977684 37.508538,144.662232 C36.1273076,144.483607 34.7282137,144.367473 33.2931632,144.367473 C14.9066069,144.367473 0,159.212217 0,177.531603 C0,193.52854 10.8076526,208.105071 26.189089,209.678218 C28.5839013,209.919381 36.144666,209.999753 36.144666,209.999753 L169.344908,209.999753 C169.344908,209.999753 177.399124,210.017611 180.071968,209.74965 C194.198147,208.320556 204.7181,195.691022 206.40572,181.44444 C206.40572,181.417642 206.414697,181.390843 206.414697,181.364045 C206.450585,181.024629 206.477472,180.694154 206.51336,180.354738 C206.585112,179.434768 206.647887,178.505856 206.647887,177.558973 L206.647887,177.532175 C206.647887,177.496459 206.638933,177.46072 206.638933,177.425004 L206.636407,177.423998 Z" transform="matrix(1 0 0 -1 0 311.44)"/>
  </g>
</svg>
